<svg width="147" height="137" viewBox="0 0 147 137" fill="none" xmlns="http://www.w3.org/2000/svg">
<g clip-path="url(#clip0_1_914)">
<path d="M50.3625 84.5187C50.0494 84.1581 49.755 83.9086 49.4754 83.611C44.8278 78.899 39.6963 74.7271 34.7062 70.4397C29.4217 65.9031 24.1224 61.4148 19.1654 56.5021C18.1479 55.5009 17.1602 54.403 16.2358 53.2715C15.8407 52.8323 15.5386 52.2629 15.3483 51.6747C15.0199 50.6734 15.5297 49.8768 16.6173 49.7872C17.2244 49.7089 17.8353 49.7907 18.4313 49.9209C23.0357 50.8058 27.64 51.6909 32.263 52.6876C37.8696 53.9336 43.4613 55.2278 49.0716 56.6339C54.4398 57.9654 59.7596 59.2822 64.9493 61.1945C65.0462 61.2243 65.1915 61.2689 65.4001 61.28C65.7425 60.8556 66.0849 60.4312 66.3789 59.9918C72.2663 51.5257 78.5934 43.3536 85.1329 35.3526C88.6055 31.1233 92.2421 27.0501 95.8303 22.9621C96.3923 22.3403 97.0028 21.7334 97.6469 21.1898C98.0713 20.8435 98.5479 20.6722 99.0845 20.996C99.6062 21.3681 99.6661 21.8632 99.5025 22.3955C99.0974 23.5422 98.6917 24.6887 98.1898 25.8056C95.9356 30.7272 93.5845 35.619 91.3304 40.5406C89.1505 45.2202 86.9558 49.9482 84.8244 54.6427C83.515 57.5241 82.2541 60.4205 80.9448 63.302C80.2455 64.8879 80.2009 65.0331 81.8029 65.6842C85.1858 67.0944 88.6176 68.5195 92.1083 69.7509C100.029 72.6081 108.008 75.2718 115.929 78.1293C119.938 79.5728 123.839 81.1949 127.818 82.7352C128.53 83.007 129.197 83.4237 129.785 83.9225C130.881 84.8417 130.736 86.1743 129.403 86.7181C128.499 87.0757 127.463 87.34 126.454 87.3478C123.429 87.5306 120.386 87.6021 117.358 87.625C108.448 87.6417 99.5683 86.8729 90.7287 85.7988C89.6034 85.665 88.464 85.5797 87.3239 85.4942C86.9065 85.4719 86.5381 85.4646 86.1058 85.4907C84.1056 85.6176 83.6706 86.1725 83.9878 88.0707C84.0857 88.7894 84.2942 89.489 84.4403 90.2225C86.1056 97.5668 88.4384 104.639 90.9787 111.722C91.7848 113.93 92.5911 116.137 93.2851 118.363C93.7326 119.665 94.0687 120.987 94.3418 122.342C94.5058 123.187 94.5102 124.036 94.3693 124.84C94.1166 126.351 92.8698 127.133 91.4312 126.638C90.6567 126.4 89.9261 126.017 89.289 125.503C88.2756 124.662 87.2911 123.724 86.3705 122.753C79.9601 116.016 74.3203 108.669 69.6555 100.563C68.7343 98.9029 67.7501 97.2759 66.7657 95.6496C66.4972 95.1437 66.1506 94.7192 65.8187 94.2466C65.3044 93.5054 64.6264 93.297 63.7996 93.5727C63.4978 93.6924 63.1628 93.7477 62.861 93.8675C51.0563 98.1316 38.9752 101.57 26.9652 105.295C25.5648 105.712 24.1981 106.193 22.7978 106.61C22.3361 106.733 21.8742 106.856 21.3939 106.867C20.8984 106.927 20.4291 106.729 20.1605 106.223C19.9404 105.732 19.9775 105.267 20.3683 104.857C20.9639 104.299 21.5111 103.725 22.1403 103.23C25.5283 100.828 28.8195 98.397 32.2748 96.1215C36.6607 93.2323 41.099 90.5175 45.5037 87.7396C46.766 86.909 48.028 86.0792 49.2418 85.2338C49.6403 85.1445 49.9531 84.8164 50.3625 84.5187Z" fill="#3B89FF"/>
</g>
<defs>
<clipPath id="clip0_1_914">
<rect width="121" height="105.155" fill="white" transform="translate(30.8838) rotate(17.0795)"/>
</clipPath>
</defs>
</svg>
